<?xml version="1.0" standalone="no"?><!DOCTYPE svg PUBLIC "-//W3C//DTD SVG 1.1//EN" "http://www.w3.org/Graphics/SVG/1.1/DTD/svg11.dtd"><svg t="1713235650459" class="icon" viewBox="0 0 1072 1024" version="1.1" xmlns="http://www.w3.org/2000/svg" p-id="1486" xmlns:xlink="http://www.w3.org/1999/xlink" width="209.375" height="200"><path d="M1068.848081 816.243655l-182.741117-316.751269a24.365482 24.365482 0 0 0-21.116751-12.182741h-157.076142l67.898477-103.309645v-1.299492a229.19797 229.19797 0 0 0 42.558376-132.060914C819.02067 112.406091 692.157726 0 536.056203 0S253.091736 112.406091 253.091736 250.639594a228.548223 228.548223 0 0 0 37.360406 124.588832 24.040609 24.040609 0 0 0 2.274112 3.248731 219.451777 219.451777 0 0 0 24.040609 30.538071L378.330315 487.309645H207.122193a24.365482 24.365482 0 0 0-21.116751 12.182741L3.264325 816.243655a24.365482 24.365482 0 0 0 21.116751 36.548223h63.837564l-61.725889 136.771574A24.365482 24.365482 0 0 0 48.746558 1023.350254h974.61929a24.365482 24.365482 0 0 0 22.253807-34.436548l-61.725889-136.771574h63.837564a24.365482 24.365482 0 0 0 21.116751-36.548223zM355.101888 378.964467l-22.903553-28.913706a180.142132 180.142132 0 0 1-30.050761-98.923857C301.822701 139.370558 406.106964 48.730964 536.056203 48.730964s234.233503 90.639594 234.233503 201.90863a181.116751 181.116751 0 0 1-34.923858 105.746193l-1.786802 2.761421-179.32995 273.218274-197.685279-251.614213zM985.680569 974.619289H86.431838l55.228426-122.477157h788.791878z m-40.121828-170.558375H66.614579L221.254173 536.040609h194.923857L536.056203 689.218274a24.365482 24.365482 0 0 0 19.167513 9.258883h0.974619a24.365482 24.365482 0 0 0 19.329949-10.883248L675.914071 536.040609h174.944163l154.639593 268.020305z" fill="#2c2c2c" p-id="1487"></path><path d="M560.421685 318.538071h66.761422a24.365482 24.365482 0 0 0 0-48.730964H560.421685V203.045685a24.365482 24.365482 0 0 0-48.730964 0v66.761422h-66.761422a24.365482 24.365482 0 0 0 0 48.730964h66.761422v66.761421a24.365482 24.365482 0 0 0 48.730964 0z" fill="#2c2c2c" p-id="1488"></path></svg>